<svg data-v-0dd9719b="" version="1.0" xmlns="http://www.w3.org/2000/svg" xmlns:xlink="http://www.w3.org/1999/xlink" width="100%" height="100%" viewBox="0 0 340.000000 250.000000" preserveAspectRatio="xMidYMid meet" color-interpolation-filters="sRGB" style="margin: auto;"> <rect data-v-0dd9719b="" x="0" y="0" width="100%" height="100%" fill="#ffffff" fill-opacity="1" class="background"></rect> <rect data-v-0dd9719b="" x="0" y="0" width="100%" height="100%" fill="url(#watermark)" fill-opacity="1" class="watermarklayer"></rect> <g data-v-0dd9719b="" fill="#147dc8" class="icon-text-wrapper icon-svg-group iconsvg" transform="translate(47.06000518798828,98.76980400085449)"><g class="iconsvg-imagesvg" transform="translate(0,0)"><g><rect fill="#147dc8" fill-opacity="0" stroke-width="2" x="0" y="0" width="60" height="52.46039240373518" class="image-rect"></rect> <svg filter="url(#colors4633336273)" x="0" y="0" width="60" height="52.46039240373518" filtersec="colorsf9602802609" class="image-svg-svg primary" style="overflow: visible;"><svg xmlns="http://www.w3.org/2000/svg" viewBox="-0.000410228967666626 -0.0013430118560791016 152.45559692382812 133.2978973388672"><path d="M91.53 133.18h-55.9c-1.71 0-3.25 0-4.2-1.86s-.23-3.12.63-4.61q13.13-22.58 26.16-45.2a7.13 7.13 0 0 1 5.59-3.94A9.79 9.79 0 0 0 72.09 68a10.48 10.48 0 0 0-8.27-10c-4.31-.94-9.09 1.8-11 6a8.76 8.76 0 0 0 .25 8.21 5.11 5.11 0 0 1-.24 5.49c-3.58 6.16-7.13 12.35-10.7 18.52-6.25 10.91-12.56 21.78-18.76 32.62-1.65 2.9-3.56 4.72-7.27 4.42a103.37 103.37 0 0 0-11.94 0A3.9 3.9 0 0 1 .4 130.9c-.82-1.43-.25-2.64.54-4q6.4-10.73 12.65-21.54c4.6-7.92 9.15-15.86 13.72-23.79L50 42.21c2.44-4.23 4.81-8.5 7.34-12.66 2.32-3.82 4.53-3.76 6.78.11q9.75 16.73 19.44 33.48c2.44 4.15 4.76 8.36 7.24 12.47a5.49 5.49 0 0 1 .41 5.32c-1.86 4.63-.61 8.95 3.32 12 3.22 2.52 8.06 2.47 11.79-.12 3.21-2.24 4.56-6.53 3.41-10.9-.93-3.58-4.41-6.68-8.08-6.83-2.82-.12-4.46-1.38-5.83-3.8-5.54-9.79-11.27-19.48-16.91-29.23-4.28-7.4-8.52-14.83-12.78-22.25a5.12 5.12 0 0 1 .06-5.53c2.12-3.6 4.19-7.27 6.29-10.9 2.58-4.47 4.87-4.5 7.43-.06q9.9 17.16 19.78 34.32c7.86 13.57 15.78 27.11 23.64 40.68 4.29 7.4 8.53 14.83 12.78 22.25 1.95 3.42.73 5.61-3.16 5.62H79.3a5.53 5.53 0 0 1-4.63-2.18c-4.18-5-10.07-5.77-14.67-2.07a9.74 9.74 0 0 0-3.2 10.33c1.55 4.55 4.64 6.77 9.12 7a9.16 9.16 0 0 0 8.12-3.5c2-2.53 4.53-3.34 7.7-3.32q28.06.12 56.13 0a8 8 0 0 1 7.9 4.77c1.69 3.34 3.7 6.53 5.7 9.7.82 1.3 1.4 2.52.61 4a4.09 4.09 0 0 1-3.95 2.38c-18.87-.14-37.73-.11-56.6-.11z" fill="#000000"></path></svg></svg> <defs><filter id="colors4633336273"><feColorMatrix type="matrix" values="0 0 0 0 0.13671875  0 0 0 0 0.70703125  0 0 0 0 0.90625  0 0 0 1 0" class="icon-fecolormatrix"></feColorMatrix></filter> <filter id="colorsf9602802609"><feColorMatrix type="matrix" values="0 0 0 0 0.99609375  0 0 0 0 0.99609375  0 0 0 0 0.99609375  0 0 0 1 0" class="icon-fecolormatrix"></feColorMatrix></filter> <filter id="colorsb6294032495"><feColorMatrix type="matrix" values="0 0 0 0 0  0 0 0 0 0  0 0 0 0 0  0 0 0 1 0" class="icon-fecolormatrix"></feColorMatrix></filter></defs></g></g> <g transform="translate(67,12.765195846557617)"><g data-gra="path-name" fill-rule="" class="tp-name iconsvg-namesvg"><g transform="scale(1)"><g><path d="M5.42 2.86Q3.38 2.86 2.38 2.18 1.38 1.51 1.35 0.03L1.35 0.03Q1.35-0.3 1.71-0.3L1.71-0.3Q1.9-0.3 2.61-0.15 3.32 0 4.93 0L4.93 0Q8.67 0 11.71-1.03 14.75-2.07 16.49-3.74 18.23-5.42 18.23-7.29L18.23-7.29Q18.23-9.59 15.83-10.39 13.43-11.2 9.72-11.2L9.72-11.2 7.29-11.17Q6.8-9.49 6.42-8.08 6.04-6.67 5.75-5.62L5.75-5.62Q4.79-2.04 4.43-0.79L4.43-0.79Q3.45-0.79 2.73-1.31 2-1.84 2-2.59L2-2.59Q2-3.19 2.33-4.11L2.33-4.11 2.46-4.5 2.89-5.81Q6.54-17.18 9.13-22.2L9.13-22.2Q7.49-21.84 5.75-20.89L5.75-20.89Q5.58-20.82 5.29-20.67 4.99-20.53 4.86-20.53L4.86-20.53Q4.53-20.53 4.04-21 3.55-21.48 3.55-21.81L3.55-21.81Q5.81-22.73 7.6-23.19 9.39-23.65 11.82-23.65L11.82-23.65Q15.07-23.65 17.57-22.53 20.07-21.41 20.07-18.29L20.07-18.29Q20.07-15.76 18.08-14.27 16.09-12.78 13.2-12.09L13.2-12.09Q16.91-11.59 18.59-10.08 20.26-8.57 20.26-6.8L20.26-6.8Q20.26-3.81 17.78-1.61 15.3 0.59 11.81 1.72 8.31 2.86 5.42 2.86L5.42 2.86ZM7.62-12.41Q11.89-12.58 14.73-14.04 17.57-15.5 17.57-18.56L17.57-18.56Q17.57-22.5 11.4-22.5L11.4-22.5Q9.56-18.95 7.62-12.41L7.62-12.41ZM28.21 2.86Q26.17 2.86 24.56 2.04 22.96 1.22 22.09-0.2 21.22-1.61 21.22-3.32L21.22-3.32Q21.22-5.25 22.32-7.08 23.42-8.9 25.32-10.18 27.22-11.46 29.59-11.79L29.59-11.79Q28.44-12.81 27.83-14.09 27.22-15.37 27.22-16.75L27.22-16.75Q27.22-18.49 28.13-20.08 29.03-21.67 30.66-22.64 32.28-23.61 34.35-23.61L34.35-23.61Q36.35-23.61 37.44-22.64 38.52-21.67 38.52-19.84L38.52-19.84Q38.52-18.62 38.08-17.44 37.64-16.26 36.96-15.52 36.29-14.78 35.7-14.78L35.7-14.78Q34.88-14.78 34.12-16.12L34.12-16.12Q37.01-18.49 37.01-20.53L37.01-20.53Q37.01-21.48 36.37-22 35.73-22.53 34.65-22.53L34.65-22.53Q33.23-22.53 32.22-21.66 31.2-20.79 30.67-19.39 30.15-18 30.15-16.45L30.15-16.45Q30.15-14.91 30.72-13.51 31.3-12.12 32.58-11.13L32.58-11.13Q30.28-10.77 28.52-9.54 26.77-8.31 25.8-6.62 24.83-4.93 24.83-3.25L24.83-3.25Q24.83-2.13 25.27-1.08 25.71-0.03 26.67 0.67 27.62 1.38 29.1 1.38L29.1 1.38Q30.84 1.38 32.59 0.39 34.35-0.59 35.83-2.23 37.31-3.88 38.19-5.75L38.19-5.75 39.08-5.19Q37.14-1.54 34.35 0.66 31.56 2.86 28.21 2.86L28.21 2.86ZM46.5 2.86Q44.5 2.86 42.79 2.18 41.08 1.51 40.03 0.15 38.98-1.22 38.98-3.15L38.98-3.15Q38.98-5.58 40.49-6.65 42-7.72 44.04-7.72L44.04-7.72Q42.99-6.63 42.45-5.45 41.9-4.27 41.9-3.15L41.9-3.15Q41.9-1.38 43.27-0.13 44.63 1.12 47.06 1.12L47.06 1.12Q48.6 1.12 50 0.61 51.4 0.1 52.27-0.92 53.14-1.94 53.14-3.32L53.14-3.32Q53.14-4.53 52.45-5.48 51.76-6.44 50.76-7.13 49.75-7.82 48.05-8.74L48.05-8.74Q46.24-9.72 45.12-10.48 44.01-11.23 43.25-12.33 42.5-13.43 42.5-14.88L42.5-14.88Q42.5-16.75 43.71-18.82 44.93-20.89 47.13-22.27 49.33-23.65 52.05-23.65L52.05-23.65Q56.16-23.65 56.16-20.2L56.16-20.2Q56.16-18.52 55.35-16.47 54.55-14.42 53.53-12.84L53.53-12.84Q52.09-13.14 52.09-14.52L52.09-14.52Q52.09-15.14 52.33-15.94 52.58-16.75 53.04-17.87L53.04-17.87Q53.5-19.11 53.73-19.84 53.96-20.56 53.96-21.15L53.96-21.15Q53.96-21.77 53.58-22.09 53.2-22.4 52.22-22.4L52.22-22.4Q50.25-22.4 48.6-21.28 46.96-20.16 45.99-18.57 45.02-16.98 45.02-15.63L45.02-15.63Q45.02-14.65 45.62-13.86 46.21-13.07 47.11-12.5 48.01-11.92 49.56-11.1L49.56-11.1Q51.49-10.05 52.66-9.26 53.83-8.47 54.66-7.22 55.5-5.98 55.5-4.24L55.5-4.24Q55.5-2.07 54.2-0.46 52.91 1.15 50.82 2 48.74 2.86 46.5 2.86L46.5 2.86ZM64.2 2.86Q61.05 2.86 60.99 0.33L60.99 0.33Q60.99-0.53 61.3-1.69 61.61-2.86 62.13-4.5L62.13-4.5Q63.22-7.78 64.45-10.85 65.68-13.92 67.49-18.19L67.49-18.19 68.67-20.99Q65.42-20.95 63.37-20.77 61.31-20.59 59.05-20.2L59.05-20.2Q59.24-22.13 61.48-22.89 63.71-23.65 67.75-23.65L67.75-23.65Q70.41-23.65 74.35-23.25L74.35-23.25Q77.8-22.92 79.41-22.92L79.41-22.92Q78.1-21.67 75.91-21.33 73.73-20.99 70.67-20.99L70.67-20.99Q67.98-14.35 65.35-4.7L65.35-4.7Q64.6-1.9 64.35-0.69 64.11 0.53 64.11 1.9L64.11 1.9Q64.11 2.36 64.2 2.86L64.2 2.86ZM102.13 3.25Q100.92 3.25 100.05 2.18 99.18 1.12 99.18-0.43L99.18-0.43 99.24-2.13Q96.52 2.89 92.25 2.89L92.25 2.89Q90.05 2.89 88.82 1.58 87.59 0.26 87.59-2.1L87.59-2.1Q87.59-3.68 88.05-5.48 88.51-7.29 89.49-10.31L89.49-10.31Q90.48-13.37 91-15.44 91.53-17.5 91.53-19.31L91.53-19.31Q91.53-22.27 89.75-22.27L89.75-22.27Q88.67-22.27 87.91-21.38 87.16-20.49 86.78-19.28 86.4-18.06 86.4-17.18L86.4-17.18Q86.4-16.16 86.83-15.07L86.83-15.07Q85.32-15.07 84.61-15.76 83.91-16.45 83.91-17.6L83.91-17.6Q83.91-18.95 84.79-20.36 85.68-21.77 87.21-22.69 88.74-23.61 90.54-23.61L90.54-23.61Q92.48-23.61 93.42-22.5 94.35-21.38 94.35-19.38L94.35-19.38Q94.35-17.77 93.84-15.68 93.33-13.6 92.38-10.57L92.38-10.57Q91.4-7.42 90.95-5.63 90.51-3.84 90.51-2.46L90.51-2.46Q90.51-0.82 91.17 0.15 91.82 1.12 93.23 1.12L93.23 1.12Q94.91 1.12 96.29-0.23 97.67-1.58 98.59-3.55 99.51-5.52 99.97-7.45L99.97-7.45Q101.77-14.84 103.15-19.23 104.53-23.61 105.81-23.61L105.81-23.61Q106.14-23.61 106.72-23.27 107.29-22.92 107.91-22.33L107.91-22.33Q107.29-21.87 105.76-17.9 104.24-13.92 103.04-9.2 101.84-4.47 101.84-1.44L101.84-1.44Q101.84-0.07 102.13 0.64 102.43 1.35 103.09 1.63 103.74 1.9 104.93 1.9L104.93 1.9Q104.56 2.5 103.73 2.87 102.89 3.25 102.13 3.25L102.13 3.25ZM108.74 2.86L109.49 0.46Q112.38-8.77 115.7-20.23L115.7-20.23Q115.93-21.15 115.93-21.51L115.93-21.51Q115.93-21.77 115.85-21.87 115.76-21.97 115.5-21.97L115.5-21.97Q114.61-21.97 113.79-21.07 112.97-20.16 112.46-18.9 111.95-17.64 111.95-16.65L111.95-16.65Q111.95-15.86 112.28-15.11L112.28-15.11Q110.9-15.11 110.28-15.68 109.66-16.26 109.66-17.24L109.66-17.24Q109.66-18.65 110.8-20.16 111.95-21.67 113.58-22.66 115.21-23.65 116.45-23.65L116.45-23.65Q117.87-23.65 118.72-22.3 119.57-20.95 120.02-18.92 120.46-16.88 120.99-13.37L120.99-13.37Q121.58-9.2 121.87-7.31 122.17-5.42 122.5-3.74L122.5-3.74 123.74-8.97Q125.02-14.52 125.85-17.55 126.67-20.59 127.45-21.94L127.45-21.94Q128.44-23.68 130.11-23.68L130.11-23.68Q128.93-20.62 127.39-15.21 125.85-9.79 124.76-4.68 123.68 0.43 123.68 2.86L123.68 2.86Q122.4 2.86 121.64 2.25 120.89 1.64 120.53 0.03L120.53 0.03Q120.13-1.64 117.8-14.55L117.8-14.55Q117.54-15.99 117.37-16.88 117.21-17.77 117.14-18.23L117.14-18.23Q114.42-8.31 113.17-4.25 111.92-0.2 110.97 1.33 110.02 2.86 108.74 2.86L108.74 2.86ZM128.44 2.89Q128.6 0.99 130.03 0.39 131.46-0.2 134.09-0.2L134.09-0.2Q135.04-2.23 135.86-5.35 136.68-8.47 137.9-13.89L137.9-13.89Q138.03-14.45 138.64-17.18 139.24-19.9 139.74-21.31L139.74-21.31Q137.37-21.28 135.65-21.08 133.92-20.89 131.95-20.53L131.95-20.53Q132.28-22.17 134.01-22.89 135.73-23.61 139.24-23.61L139.24-23.61Q143.19-23.61 148.77-22.89L148.77-22.89Q147.78-21.94 146.85-21.64 145.91-21.35 144.96-21.35L144.96-21.35Q142.46-21.35 141.41-21.31L141.41-21.31 141.22-20.33 140.39-15.76Q139.9-12.94 139.33-9.92 138.75-6.9 138.36-5.39L138.36-5.39Q137.37-1.44 135.99-0.13L135.99-0.13Q137.64 0 138.49 0.1L138.49 0.1Q141.51 0.43 143.42 0.46L143.42 0.46Q141.48 2.3 138.98 2.3L138.98 2.3Q134.42 2.3 132.63 2.4 130.84 2.5 128.44 2.89L128.44 2.89ZM153.2 2.86Q150.05 2.86 149.98 0.33L149.98 0.33Q149.98-0.53 150.3-1.69 150.61-2.86 151.13-4.5L151.13-4.5Q152.22-7.78 153.45-10.85 154.68-13.92 156.49-18.19L156.49-18.19 157.67-20.99Q154.42-20.95 152.36-20.77 150.31-20.59 148.05-20.2L148.05-20.2Q148.24-22.13 150.48-22.89 152.71-23.65 156.75-23.65L156.75-23.65Q159.41-23.65 163.35-23.25L163.35-23.25Q166.8-22.92 168.41-22.92L168.41-22.92Q167.09-21.67 164.91-21.33 162.73-20.99 159.67-20.99L159.67-20.99Q156.98-14.35 154.35-4.7L154.35-4.7Q153.6-1.9 153.35-0.69 153.1 0.53 153.1 1.9L153.1 1.9Q153.1 2.36 153.2 2.86L153.2 2.86ZM169.36 2.86Q167.32 2.86 165.71 2.04 164.11 1.22 163.23-0.2 162.36-1.61 162.36-3.32L162.36-3.32Q162.36-5.25 163.46-7.08 164.56-8.9 166.47-10.18 168.37-11.46 170.74-11.79L170.74-11.79Q169.59-12.81 168.98-14.09 168.37-15.37 168.37-16.75L168.37-16.75Q168.37-18.49 169.28-20.08 170.18-21.67 171.81-22.64 173.43-23.61 175.5-23.61L175.5-23.61Q177.5-23.61 178.59-22.64 179.67-21.67 179.67-19.84L179.67-19.84Q179.67-18.62 179.23-17.44 178.78-16.26 178.11-15.52 177.44-14.78 176.85-14.78L176.85-14.78Q176.03-14.78 175.27-16.12L175.27-16.12Q178.16-18.49 178.16-20.53L178.16-20.53Q178.16-21.48 177.52-22 176.88-22.53 175.8-22.53L175.8-22.53Q174.38-22.53 173.37-21.66 172.35-20.79 171.82-19.39 171.3-18 171.3-16.45L171.3-16.45Q171.3-14.91 171.87-13.51 172.45-12.12 173.73-11.13L173.73-11.13Q171.43-10.77 169.67-9.54 167.91-8.31 166.95-6.62 165.98-4.93 165.98-3.25L165.98-3.25Q165.98-2.13 166.42-1.08 166.86-0.03 167.82 0.67 168.77 1.38 170.25 1.38L170.25 1.38Q171.99 1.38 173.74 0.39 175.5-0.59 176.98-2.23 178.46-3.88 179.34-5.75L179.34-5.75 180.23-5.19Q178.29-1.54 175.5 0.66 172.71 2.86 169.36 2.86L169.36 2.86Z" transform="translate(-1.350000023841858, 23.68000030517578)"></path></g> <!----> <!----> <!----> <!----> <!----> <!----> <!----></g></g> <!----></g></g><defs v-gra="od"></defs></svg>